<mxfile host="app.diagrams.net" modified="2024-03-20T20:46:25.191Z" agent="Mozilla/5.0 (Windows NT 10.0; Win64; x64) AppleWebKit/537.36 (KHTML, like Gecko) Chrome/122.0.0.0 Safari/537.36" etag="ue9McqPnZtsJUjqbWsVn" version="24.0.7" type="device">
  <diagram name="Страница — 1" id="kYXWIAKuvgzMj7fdLwrO">
    <mxGraphModel dx="2210" dy="1689" grid="1" gridSize="10" guides="1" tooltips="1" connect="1" arrows="1" fold="1" page="1" pageScale="1" pageWidth="827" pageHeight="1169" math="0" shadow="0">
      <root>
        <mxCell id="0" />
        <mxCell id="1" parent="0" />
        <mxCell id="YbIEZe0q2mpBXpgS7-zM-7" value="" style="edgeStyle=orthogonalEdgeStyle;rounded=0;orthogonalLoop=1;jettySize=auto;html=1;" edge="1" parent="1" source="YbIEZe0q2mpBXpgS7-zM-1" target="YbIEZe0q2mpBXpgS7-zM-2">
          <mxGeometry relative="1" as="geometry" />
        </mxCell>
        <mxCell id="YbIEZe0q2mpBXpgS7-zM-1" value="Начало" style="rounded=1;whiteSpace=wrap;html=1;" vertex="1" parent="1">
          <mxGeometry x="-735" y="-1160" width="120" height="60" as="geometry" />
        </mxCell>
        <mxCell id="YbIEZe0q2mpBXpgS7-zM-49" value="" style="edgeStyle=orthogonalEdgeStyle;rounded=0;orthogonalLoop=1;jettySize=auto;html=1;" edge="1" parent="1" source="YbIEZe0q2mpBXpgS7-zM-2" target="YbIEZe0q2mpBXpgS7-zM-22">
          <mxGeometry relative="1" as="geometry" />
        </mxCell>
        <mxCell id="YbIEZe0q2mpBXpgS7-zM-2" value="Ввод значения варианта начальных данных Number" style="shape=parallelogram;perimeter=parallelogramPerimeter;whiteSpace=wrap;html=1;fixedSize=1;" vertex="1" parent="1">
          <mxGeometry x="-770" y="-1080" width="190" height="70" as="geometry" />
        </mxCell>
        <mxCell id="YbIEZe0q2mpBXpgS7-zM-48" style="edgeStyle=orthogonalEdgeStyle;rounded=0;orthogonalLoop=1;jettySize=auto;html=1;entryX=0.5;entryY=0;entryDx=0;entryDy=0;" edge="1" parent="1" source="YbIEZe0q2mpBXpgS7-zM-5" target="YbIEZe0q2mpBXpgS7-zM-33">
          <mxGeometry relative="1" as="geometry">
            <Array as="points">
              <mxPoint x="-155" y="-850" />
              <mxPoint x="-155" y="-850" />
            </Array>
          </mxGeometry>
        </mxCell>
        <mxCell id="YbIEZe0q2mpBXpgS7-zM-5" value="&amp;nbsp;Ввод значения номера из предложенных массивов Number" style="shape=parallelogram;perimeter=parallelogramPerimeter;whiteSpace=wrap;html=1;fixedSize=1;" vertex="1" parent="1">
          <mxGeometry x="-290" y="-950" width="257.5" height="90" as="geometry" />
        </mxCell>
        <mxCell id="YbIEZe0q2mpBXpgS7-zM-147" style="edgeStyle=orthogonalEdgeStyle;rounded=0;orthogonalLoop=1;jettySize=auto;html=1;entryX=0.5;entryY=0;entryDx=0;entryDy=0;" edge="1" parent="1" source="YbIEZe0q2mpBXpgS7-zM-9" target="YbIEZe0q2mpBXpgS7-zM-50">
          <mxGeometry relative="1" as="geometry">
            <Array as="points">
              <mxPoint x="-300" y="-540" />
              <mxPoint x="-150" y="-540" />
            </Array>
          </mxGeometry>
        </mxCell>
        <mxCell id="YbIEZe0q2mpBXpgS7-zM-9" value="Data = [&quot;“Hello”&quot;, &quot;“2”&quot;, &quot;“world”&quot;, &quot;“:-)”&quot;]" style="rounded=0;whiteSpace=wrap;html=1;fontSize=12;" vertex="1" parent="1">
          <mxGeometry x="-360" y="-610" width="120" height="60" as="geometry" />
        </mxCell>
        <mxCell id="YbIEZe0q2mpBXpgS7-zM-53" value="" style="edgeStyle=orthogonalEdgeStyle;rounded=0;orthogonalLoop=1;jettySize=auto;html=1;" edge="1" parent="1" source="YbIEZe0q2mpBXpgS7-zM-12" target="YbIEZe0q2mpBXpgS7-zM-50">
          <mxGeometry relative="1" as="geometry" />
        </mxCell>
        <mxCell id="YbIEZe0q2mpBXpgS7-zM-12" value="Data = [&quot;“1234”&quot;, &quot;“1567”&quot;, &quot;“-2”&quot;, &quot;“computer science”&quot;]" style="rounded=0;whiteSpace=wrap;html=1;" vertex="1" parent="1">
          <mxGeometry x="-210" y="-610" width="120" height="60" as="geometry" />
        </mxCell>
        <mxCell id="YbIEZe0q2mpBXpgS7-zM-146" style="edgeStyle=orthogonalEdgeStyle;rounded=0;orthogonalLoop=1;jettySize=auto;html=1;entryX=0.5;entryY=0;entryDx=0;entryDy=0;" edge="1" parent="1" source="YbIEZe0q2mpBXpgS7-zM-13" target="YbIEZe0q2mpBXpgS7-zM-50">
          <mxGeometry relative="1" as="geometry">
            <Array as="points">
              <mxPoint y="-540" />
              <mxPoint x="-150" y="-540" />
            </Array>
          </mxGeometry>
        </mxCell>
        <mxCell id="YbIEZe0q2mpBXpgS7-zM-13" value="Data = [&quot;“Russia”&quot;, &quot;“Denmark”&quot;, &quot;“Kazan”&quot;]" style="rounded=0;whiteSpace=wrap;html=1;" vertex="1" parent="1">
          <mxGeometry x="-60" y="-610" width="120" height="60" as="geometry" />
        </mxCell>
        <mxCell id="YbIEZe0q2mpBXpgS7-zM-23" style="edgeStyle=orthogonalEdgeStyle;rounded=0;orthogonalLoop=1;jettySize=auto;html=1;entryX=0;entryY=0.5;entryDx=0;entryDy=0;exitX=0;exitY=0.5;exitDx=0;exitDy=0;" edge="1" parent="1" source="YbIEZe0q2mpBXpgS7-zM-22" target="YbIEZe0q2mpBXpgS7-zM-2">
          <mxGeometry relative="1" as="geometry">
            <Array as="points">
              <mxPoint x="-820" y="-907" />
              <mxPoint x="-820" y="-1045" />
            </Array>
          </mxGeometry>
        </mxCell>
        <mxCell id="YbIEZe0q2mpBXpgS7-zM-26" value="Да" style="edgeLabel;html=1;align=center;verticalAlign=middle;resizable=0;points=[];" vertex="1" connectable="0" parent="YbIEZe0q2mpBXpgS7-zM-23">
          <mxGeometry x="-0.0133" y="-2" relative="1" as="geometry">
            <mxPoint as="offset" />
          </mxGeometry>
        </mxCell>
        <mxCell id="YbIEZe0q2mpBXpgS7-zM-29" value="" style="edgeStyle=orthogonalEdgeStyle;rounded=0;orthogonalLoop=1;jettySize=auto;html=1;" edge="1" parent="1" source="YbIEZe0q2mpBXpgS7-zM-22" target="YbIEZe0q2mpBXpgS7-zM-28">
          <mxGeometry relative="1" as="geometry" />
        </mxCell>
        <mxCell id="YbIEZe0q2mpBXpgS7-zM-30" value="Нет" style="edgeLabel;html=1;align=center;verticalAlign=middle;resizable=0;points=[];" vertex="1" connectable="0" parent="YbIEZe0q2mpBXpgS7-zM-29">
          <mxGeometry relative="1" as="geometry">
            <mxPoint as="offset" />
          </mxGeometry>
        </mxCell>
        <mxCell id="YbIEZe0q2mpBXpgS7-zM-22" value="Number != 1 &amp;amp; Numer != 2" style="rhombus;whiteSpace=wrap;html=1;" vertex="1" parent="1">
          <mxGeometry x="-755" y="-982.5" width="160" height="150" as="geometry" />
        </mxCell>
        <mxCell id="YbIEZe0q2mpBXpgS7-zM-31" value="" style="edgeStyle=orthogonalEdgeStyle;rounded=0;orthogonalLoop=1;jettySize=auto;html=1;" edge="1" parent="1" source="YbIEZe0q2mpBXpgS7-zM-28" target="YbIEZe0q2mpBXpgS7-zM-5">
          <mxGeometry relative="1" as="geometry" />
        </mxCell>
        <mxCell id="YbIEZe0q2mpBXpgS7-zM-32" value="Да" style="edgeLabel;html=1;align=center;verticalAlign=middle;resizable=0;points=[];" vertex="1" connectable="0" parent="YbIEZe0q2mpBXpgS7-zM-31">
          <mxGeometry y="-2" relative="1" as="geometry">
            <mxPoint as="offset" />
          </mxGeometry>
        </mxCell>
        <mxCell id="YbIEZe0q2mpBXpgS7-zM-101" value="" style="edgeStyle=orthogonalEdgeStyle;rounded=0;orthogonalLoop=1;jettySize=auto;html=1;" edge="1" parent="1" source="YbIEZe0q2mpBXpgS7-zM-28" target="YbIEZe0q2mpBXpgS7-zM-100">
          <mxGeometry relative="1" as="geometry">
            <Array as="points">
              <mxPoint x="-460" y="-765" />
            </Array>
          </mxGeometry>
        </mxCell>
        <mxCell id="YbIEZe0q2mpBXpgS7-zM-102" value="Нет" style="edgeLabel;html=1;align=center;verticalAlign=middle;resizable=0;points=[];" vertex="1" connectable="0" parent="YbIEZe0q2mpBXpgS7-zM-101">
          <mxGeometry relative="1" as="geometry">
            <mxPoint x="16" y="-35" as="offset" />
          </mxGeometry>
        </mxCell>
        <mxCell id="YbIEZe0q2mpBXpgS7-zM-28" value="Number = 1" style="rhombus;whiteSpace=wrap;html=1;" vertex="1" parent="1">
          <mxGeometry x="-540" y="-938.75" width="160" height="62.5" as="geometry" />
        </mxCell>
        <mxCell id="YbIEZe0q2mpBXpgS7-zM-34" style="edgeStyle=orthogonalEdgeStyle;rounded=0;orthogonalLoop=1;jettySize=auto;html=1;entryX=0.5;entryY=0;entryDx=0;entryDy=0;exitX=0;exitY=0.5;exitDx=0;exitDy=0;" edge="1" parent="1" source="YbIEZe0q2mpBXpgS7-zM-33" target="YbIEZe0q2mpBXpgS7-zM-9">
          <mxGeometry relative="1" as="geometry">
            <Array as="points">
              <mxPoint x="-300" y="-795" />
            </Array>
          </mxGeometry>
        </mxCell>
        <mxCell id="YbIEZe0q2mpBXpgS7-zM-35" value="Да" style="edgeLabel;html=1;align=center;verticalAlign=middle;resizable=0;points=[];" vertex="1" connectable="0" parent="YbIEZe0q2mpBXpgS7-zM-34">
          <mxGeometry y="-2" relative="1" as="geometry">
            <mxPoint as="offset" />
          </mxGeometry>
        </mxCell>
        <mxCell id="YbIEZe0q2mpBXpgS7-zM-37" value="" style="edgeStyle=orthogonalEdgeStyle;rounded=0;orthogonalLoop=1;jettySize=auto;html=1;" edge="1" parent="1" source="YbIEZe0q2mpBXpgS7-zM-33" target="YbIEZe0q2mpBXpgS7-zM-36">
          <mxGeometry relative="1" as="geometry" />
        </mxCell>
        <mxCell id="YbIEZe0q2mpBXpgS7-zM-38" value="Нет" style="edgeLabel;html=1;align=center;verticalAlign=middle;resizable=0;points=[];" vertex="1" connectable="0" parent="YbIEZe0q2mpBXpgS7-zM-37">
          <mxGeometry x="-0.1833" relative="1" as="geometry">
            <mxPoint as="offset" />
          </mxGeometry>
        </mxCell>
        <mxCell id="YbIEZe0q2mpBXpgS7-zM-33" value="Number = 1" style="rhombus;whiteSpace=wrap;html=1;" vertex="1" parent="1">
          <mxGeometry x="-217.5" y="-820" width="125" height="50" as="geometry" />
        </mxCell>
        <mxCell id="YbIEZe0q2mpBXpgS7-zM-39" style="edgeStyle=orthogonalEdgeStyle;rounded=0;orthogonalLoop=1;jettySize=auto;html=1;entryX=0.462;entryY=0.023;entryDx=0;entryDy=0;entryPerimeter=0;" edge="1" parent="1" source="YbIEZe0q2mpBXpgS7-zM-36" target="YbIEZe0q2mpBXpgS7-zM-12">
          <mxGeometry relative="1" as="geometry" />
        </mxCell>
        <mxCell id="YbIEZe0q2mpBXpgS7-zM-40" value="Да" style="edgeLabel;html=1;align=center;verticalAlign=middle;resizable=0;points=[];" vertex="1" connectable="0" parent="YbIEZe0q2mpBXpgS7-zM-39">
          <mxGeometry y="1" relative="1" as="geometry">
            <mxPoint as="offset" />
          </mxGeometry>
        </mxCell>
        <mxCell id="YbIEZe0q2mpBXpgS7-zM-42" value="" style="edgeStyle=orthogonalEdgeStyle;rounded=0;orthogonalLoop=1;jettySize=auto;html=1;" edge="1" parent="1" source="YbIEZe0q2mpBXpgS7-zM-36" target="YbIEZe0q2mpBXpgS7-zM-41">
          <mxGeometry relative="1" as="geometry" />
        </mxCell>
        <mxCell id="YbIEZe0q2mpBXpgS7-zM-43" value="Нет" style="edgeLabel;html=1;align=center;verticalAlign=middle;resizable=0;points=[];" vertex="1" connectable="0" parent="YbIEZe0q2mpBXpgS7-zM-42">
          <mxGeometry x="-0.0944" y="-3" relative="1" as="geometry">
            <mxPoint x="-6" y="3" as="offset" />
          </mxGeometry>
        </mxCell>
        <mxCell id="YbIEZe0q2mpBXpgS7-zM-36" value="Number = 2" style="rhombus;whiteSpace=wrap;html=1;" vertex="1" parent="1">
          <mxGeometry x="-220" y="-720" width="130" height="50" as="geometry" />
        </mxCell>
        <mxCell id="YbIEZe0q2mpBXpgS7-zM-44" style="edgeStyle=orthogonalEdgeStyle;rounded=0;orthogonalLoop=1;jettySize=auto;html=1;entryX=1;entryY=0.5;entryDx=0;entryDy=0;exitX=0.5;exitY=0;exitDx=0;exitDy=0;" edge="1" parent="1" source="YbIEZe0q2mpBXpgS7-zM-41" target="YbIEZe0q2mpBXpgS7-zM-5">
          <mxGeometry relative="1" as="geometry">
            <Array as="points">
              <mxPoint y="-905" />
            </Array>
          </mxGeometry>
        </mxCell>
        <mxCell id="YbIEZe0q2mpBXpgS7-zM-45" value="Нет" style="edgeLabel;html=1;align=center;verticalAlign=middle;resizable=0;points=[];" vertex="1" connectable="0" parent="YbIEZe0q2mpBXpgS7-zM-44">
          <mxGeometry x="-0.3399" y="3" relative="1" as="geometry">
            <mxPoint as="offset" />
          </mxGeometry>
        </mxCell>
        <mxCell id="YbIEZe0q2mpBXpgS7-zM-46" value="" style="edgeStyle=orthogonalEdgeStyle;rounded=0;orthogonalLoop=1;jettySize=auto;html=1;" edge="1" parent="1" source="YbIEZe0q2mpBXpgS7-zM-41" target="YbIEZe0q2mpBXpgS7-zM-13">
          <mxGeometry relative="1" as="geometry" />
        </mxCell>
        <mxCell id="YbIEZe0q2mpBXpgS7-zM-47" value="Да" style="edgeLabel;html=1;align=center;verticalAlign=middle;resizable=0;points=[];" vertex="1" connectable="0" parent="YbIEZe0q2mpBXpgS7-zM-46">
          <mxGeometry relative="1" as="geometry">
            <mxPoint as="offset" />
          </mxGeometry>
        </mxCell>
        <mxCell id="YbIEZe0q2mpBXpgS7-zM-41" value="Number =3" style="rhombus;whiteSpace=wrap;html=1;" vertex="1" parent="1">
          <mxGeometry x="-57.5" y="-722.5" width="115" height="55" as="geometry" />
        </mxCell>
        <mxCell id="YbIEZe0q2mpBXpgS7-zM-138" value="" style="edgeStyle=orthogonalEdgeStyle;rounded=0;orthogonalLoop=1;jettySize=auto;html=1;" edge="1" parent="1" source="YbIEZe0q2mpBXpgS7-zM-50" target="YbIEZe0q2mpBXpgS7-zM-137">
          <mxGeometry relative="1" as="geometry" />
        </mxCell>
        <mxCell id="YbIEZe0q2mpBXpgS7-zM-50" value="ArrayCheck = Data" style="rounded=0;whiteSpace=wrap;html=1;" vertex="1" parent="1">
          <mxGeometry x="-210" y="-520" width="120" height="20" as="geometry" />
        </mxCell>
        <mxCell id="YbIEZe0q2mpBXpgS7-zM-60" value="" style="edgeStyle=orthogonalEdgeStyle;rounded=0;orthogonalLoop=1;jettySize=auto;html=1;" edge="1" parent="1" source="YbIEZe0q2mpBXpgS7-zM-54" target="YbIEZe0q2mpBXpgS7-zM-59">
          <mxGeometry relative="1" as="geometry" />
        </mxCell>
        <mxCell id="YbIEZe0q2mpBXpgS7-zM-61" value="Да" style="edgeLabel;html=1;align=center;verticalAlign=middle;resizable=0;points=[];" vertex="1" connectable="0" parent="YbIEZe0q2mpBXpgS7-zM-60">
          <mxGeometry relative="1" as="geometry">
            <mxPoint as="offset" />
          </mxGeometry>
        </mxCell>
        <mxCell id="YbIEZe0q2mpBXpgS7-zM-76" style="edgeStyle=orthogonalEdgeStyle;rounded=0;orthogonalLoop=1;jettySize=auto;html=1;entryX=1;entryY=0.5;entryDx=0;entryDy=0;exitX=1;exitY=0.5;exitDx=0;exitDy=0;" edge="1" parent="1" source="YbIEZe0q2mpBXpgS7-zM-54" target="YbIEZe0q2mpBXpgS7-zM-75">
          <mxGeometry relative="1" as="geometry">
            <Array as="points">
              <mxPoint x="110" y="-345" />
              <mxPoint x="110" y="50" />
            </Array>
          </mxGeometry>
        </mxCell>
        <mxCell id="YbIEZe0q2mpBXpgS7-zM-77" value="Нет" style="edgeLabel;html=1;align=center;verticalAlign=middle;resizable=0;points=[];" vertex="1" connectable="0" parent="YbIEZe0q2mpBXpgS7-zM-76">
          <mxGeometry x="-0.9319" y="1" relative="1" as="geometry">
            <mxPoint as="offset" />
          </mxGeometry>
        </mxCell>
        <mxCell id="YbIEZe0q2mpBXpgS7-zM-54" value="i &amp;lt; ArrayCheck.Length" style="rhombus;whiteSpace=wrap;html=1;" vertex="1" parent="1">
          <mxGeometry x="-75" y="-410" width="150" height="130" as="geometry" />
        </mxCell>
        <mxCell id="YbIEZe0q2mpBXpgS7-zM-70" value="" style="edgeStyle=orthogonalEdgeStyle;rounded=0;orthogonalLoop=1;jettySize=auto;html=1;" edge="1" parent="1" source="YbIEZe0q2mpBXpgS7-zM-59" target="YbIEZe0q2mpBXpgS7-zM-69">
          <mxGeometry relative="1" as="geometry" />
        </mxCell>
        <mxCell id="YbIEZe0q2mpBXpgS7-zM-71" value="Да" style="edgeLabel;html=1;align=center;verticalAlign=middle;resizable=0;points=[];" vertex="1" connectable="0" parent="YbIEZe0q2mpBXpgS7-zM-70">
          <mxGeometry relative="1" as="geometry">
            <mxPoint as="offset" />
          </mxGeometry>
        </mxCell>
        <mxCell id="YbIEZe0q2mpBXpgS7-zM-73" style="edgeStyle=orthogonalEdgeStyle;rounded=0;orthogonalLoop=1;jettySize=auto;html=1;exitX=0;exitY=0.5;exitDx=0;exitDy=0;" edge="1" parent="1" source="YbIEZe0q2mpBXpgS7-zM-59">
          <mxGeometry relative="1" as="geometry">
            <mxPoint x="-130" y="-175" as="targetPoint" />
            <Array as="points">
              <mxPoint x="-120" y="-175" />
            </Array>
          </mxGeometry>
        </mxCell>
        <mxCell id="YbIEZe0q2mpBXpgS7-zM-74" value="Нет" style="edgeLabel;html=1;align=center;verticalAlign=middle;resizable=0;points=[];" vertex="1" connectable="0" parent="YbIEZe0q2mpBXpgS7-zM-73">
          <mxGeometry relative="1" as="geometry">
            <mxPoint as="offset" />
          </mxGeometry>
        </mxCell>
        <mxCell id="YbIEZe0q2mpBXpgS7-zM-59" value="ArrayCheck[i].Length &amp;lt;= 5" style="rhombus;whiteSpace=wrap;html=1;" vertex="1" parent="1">
          <mxGeometry x="-80" y="-250" width="160" height="150" as="geometry" />
        </mxCell>
        <mxCell id="YbIEZe0q2mpBXpgS7-zM-72" style="edgeStyle=orthogonalEdgeStyle;rounded=0;orthogonalLoop=1;jettySize=auto;html=1;entryX=0;entryY=0.5;entryDx=0;entryDy=0;exitX=0;exitY=0.5;exitDx=0;exitDy=0;" edge="1" parent="1" source="YbIEZe0q2mpBXpgS7-zM-69" target="YbIEZe0q2mpBXpgS7-zM-54">
          <mxGeometry relative="1" as="geometry">
            <Array as="points">
              <mxPoint x="-130" y="-40" />
              <mxPoint x="-130" y="-345" />
            </Array>
          </mxGeometry>
        </mxCell>
        <mxCell id="YbIEZe0q2mpBXpgS7-zM-69" value="SizeArray += 1" style="rounded=0;whiteSpace=wrap;html=1;" vertex="1" parent="1">
          <mxGeometry x="-60" y="-70" width="120" height="60" as="geometry" />
        </mxCell>
        <mxCell id="YbIEZe0q2mpBXpgS7-zM-80" value="" style="edgeStyle=orthogonalEdgeStyle;rounded=0;orthogonalLoop=1;jettySize=auto;html=1;" edge="1" parent="1" source="YbIEZe0q2mpBXpgS7-zM-75" target="YbIEZe0q2mpBXpgS7-zM-79">
          <mxGeometry relative="1" as="geometry" />
        </mxCell>
        <mxCell id="YbIEZe0q2mpBXpgS7-zM-81" value="Да" style="edgeLabel;html=1;align=center;verticalAlign=middle;resizable=0;points=[];" vertex="1" connectable="0" parent="YbIEZe0q2mpBXpgS7-zM-80">
          <mxGeometry x="-0.1228" y="1" relative="1" as="geometry">
            <mxPoint x="1" y="-4" as="offset" />
          </mxGeometry>
        </mxCell>
        <mxCell id="YbIEZe0q2mpBXpgS7-zM-84" value="" style="edgeStyle=orthogonalEdgeStyle;rounded=0;orthogonalLoop=1;jettySize=auto;html=1;" edge="1" parent="1" source="YbIEZe0q2mpBXpgS7-zM-75" target="YbIEZe0q2mpBXpgS7-zM-83">
          <mxGeometry relative="1" as="geometry" />
        </mxCell>
        <mxCell id="YbIEZe0q2mpBXpgS7-zM-85" value="Нет" style="edgeLabel;html=1;align=center;verticalAlign=middle;resizable=0;points=[];" vertex="1" connectable="0" parent="YbIEZe0q2mpBXpgS7-zM-84">
          <mxGeometry relative="1" as="geometry">
            <mxPoint as="offset" />
          </mxGeometry>
        </mxCell>
        <mxCell id="YbIEZe0q2mpBXpgS7-zM-75" value="SizeArray&amp;nbsp; = 0" style="rhombus;whiteSpace=wrap;html=1;" vertex="1" parent="1">
          <mxGeometry x="-82.5" y="15" width="165" height="70" as="geometry" />
        </mxCell>
        <mxCell id="YbIEZe0q2mpBXpgS7-zM-145" value="" style="edgeStyle=orthogonalEdgeStyle;rounded=0;orthogonalLoop=1;jettySize=auto;html=1;" edge="1" parent="1" source="YbIEZe0q2mpBXpgS7-zM-78" target="YbIEZe0q2mpBXpgS7-zM-144">
          <mxGeometry relative="1" as="geometry" />
        </mxCell>
        <mxCell id="YbIEZe0q2mpBXpgS7-zM-78" value="&lt;div&gt;Вывод&lt;/div&gt;ArrayItog" style="shape=document;whiteSpace=wrap;html=1;boundedLbl=1;" vertex="1" parent="1">
          <mxGeometry x="-410" y="120" width="120" height="80" as="geometry" />
        </mxCell>
        <mxCell id="YbIEZe0q2mpBXpgS7-zM-82" style="edgeStyle=orthogonalEdgeStyle;rounded=0;orthogonalLoop=1;jettySize=auto;html=1;exitX=0;exitY=0.5;exitDx=0;exitDy=0;" edge="1" parent="1" source="YbIEZe0q2mpBXpgS7-zM-79" target="YbIEZe0q2mpBXpgS7-zM-78">
          <mxGeometry relative="1" as="geometry" />
        </mxCell>
        <mxCell id="YbIEZe0q2mpBXpgS7-zM-79" value="ArrayItog = new string[1]" style="rounded=0;whiteSpace=wrap;html=1;" vertex="1" parent="1">
          <mxGeometry x="-60" y="130" width="120" height="60" as="geometry" />
        </mxCell>
        <mxCell id="YbIEZe0q2mpBXpgS7-zM-111" value="" style="edgeStyle=orthogonalEdgeStyle;rounded=0;orthogonalLoop=1;jettySize=auto;html=1;entryX=1;entryY=0.5;entryDx=0;entryDy=0;exitX=0.516;exitY=-0.008;exitDx=0;exitDy=0;exitPerimeter=0;" edge="1" parent="1" source="YbIEZe0q2mpBXpgS7-zM-83" target="YbIEZe0q2mpBXpgS7-zM-87">
          <mxGeometry relative="1" as="geometry" />
        </mxCell>
        <mxCell id="YbIEZe0q2mpBXpgS7-zM-83" value="string[] ArrayItog = new string[SizeArray]&lt;div&gt;i = 0&lt;/div&gt;&lt;div&gt;d = 0&lt;/div&gt;" style="rounded=0;whiteSpace=wrap;html=1;" vertex="1" parent="1">
          <mxGeometry x="-260" y="20" width="120" height="60" as="geometry" />
        </mxCell>
        <mxCell id="YbIEZe0q2mpBXpgS7-zM-91" value="" style="edgeStyle=orthogonalEdgeStyle;rounded=0;orthogonalLoop=1;jettySize=auto;html=1;entryX=0.5;entryY=1;entryDx=0;entryDy=0;exitX=0.5;exitY=0;exitDx=0;exitDy=0;" edge="1" parent="1" source="YbIEZe0q2mpBXpgS7-zM-87" target="YbIEZe0q2mpBXpgS7-zM-88">
          <mxGeometry relative="1" as="geometry">
            <Array as="points">
              <mxPoint x="-350" y="-150" />
              <mxPoint x="-350" y="-150" />
            </Array>
          </mxGeometry>
        </mxCell>
        <mxCell id="YbIEZe0q2mpBXpgS7-zM-92" value="Да" style="edgeLabel;html=1;align=center;verticalAlign=middle;resizable=0;points=[];" vertex="1" connectable="0" parent="YbIEZe0q2mpBXpgS7-zM-91">
          <mxGeometry relative="1" as="geometry">
            <mxPoint as="offset" />
          </mxGeometry>
        </mxCell>
        <mxCell id="YbIEZe0q2mpBXpgS7-zM-135" value="" style="edgeStyle=orthogonalEdgeStyle;rounded=0;orthogonalLoop=1;jettySize=auto;html=1;" edge="1" parent="1" source="YbIEZe0q2mpBXpgS7-zM-87" target="YbIEZe0q2mpBXpgS7-zM-78">
          <mxGeometry relative="1" as="geometry" />
        </mxCell>
        <mxCell id="YbIEZe0q2mpBXpgS7-zM-136" value="Нет" style="edgeLabel;html=1;align=center;verticalAlign=middle;resizable=0;points=[];" vertex="1" connectable="0" parent="YbIEZe0q2mpBXpgS7-zM-135">
          <mxGeometry x="-0.1429" y="1" relative="1" as="geometry">
            <mxPoint as="offset" />
          </mxGeometry>
        </mxCell>
        <mxCell id="YbIEZe0q2mpBXpgS7-zM-87" value="i &amp;lt; ArrayCheck.Length" style="rhombus;whiteSpace=wrap;html=1;" vertex="1" parent="1">
          <mxGeometry x="-425" y="-130" width="150" height="130" as="geometry" />
        </mxCell>
        <mxCell id="YbIEZe0q2mpBXpgS7-zM-96" value="" style="edgeStyle=orthogonalEdgeStyle;rounded=0;orthogonalLoop=1;jettySize=auto;html=1;" edge="1" parent="1" source="YbIEZe0q2mpBXpgS7-zM-88" target="YbIEZe0q2mpBXpgS7-zM-95">
          <mxGeometry relative="1" as="geometry" />
        </mxCell>
        <mxCell id="YbIEZe0q2mpBXpgS7-zM-97" value="Да" style="edgeLabel;html=1;align=center;verticalAlign=middle;resizable=0;points=[];" vertex="1" connectable="0" parent="YbIEZe0q2mpBXpgS7-zM-96">
          <mxGeometry relative="1" as="geometry">
            <mxPoint as="offset" />
          </mxGeometry>
        </mxCell>
        <mxCell id="YbIEZe0q2mpBXpgS7-zM-148" style="edgeStyle=orthogonalEdgeStyle;rounded=0;orthogonalLoop=1;jettySize=auto;html=1;" edge="1" parent="1" source="YbIEZe0q2mpBXpgS7-zM-88">
          <mxGeometry relative="1" as="geometry">
            <mxPoint x="-469.99999999999994" y="-237.4999999999999" as="targetPoint" />
          </mxGeometry>
        </mxCell>
        <mxCell id="YbIEZe0q2mpBXpgS7-zM-149" value="Нет" style="edgeLabel;html=1;align=center;verticalAlign=middle;resizable=0;points=[];" vertex="1" connectable="0" parent="YbIEZe0q2mpBXpgS7-zM-148">
          <mxGeometry x="-0.3064" y="-1" relative="1" as="geometry">
            <mxPoint as="offset" />
          </mxGeometry>
        </mxCell>
        <mxCell id="YbIEZe0q2mpBXpgS7-zM-88" value="ArrayCheck[i].Length &amp;lt;= 5" style="rhombus;whiteSpace=wrap;html=1;" vertex="1" parent="1">
          <mxGeometry x="-430" y="-312.5" width="160" height="150" as="geometry" />
        </mxCell>
        <mxCell id="YbIEZe0q2mpBXpgS7-zM-118" style="edgeStyle=orthogonalEdgeStyle;rounded=0;orthogonalLoop=1;jettySize=auto;html=1;entryX=0;entryY=0.5;entryDx=0;entryDy=0;" edge="1" parent="1" source="YbIEZe0q2mpBXpgS7-zM-95" target="YbIEZe0q2mpBXpgS7-zM-87">
          <mxGeometry relative="1" as="geometry">
            <Array as="points">
              <mxPoint x="-470" y="-380" />
              <mxPoint x="-470" y="-65" />
            </Array>
          </mxGeometry>
        </mxCell>
        <mxCell id="YbIEZe0q2mpBXpgS7-zM-95" value="ArrayItog[d] = ArrayCheck[i]&lt;div&gt;d += 1&lt;/div&gt;" style="whiteSpace=wrap;html=1;" vertex="1" parent="1">
          <mxGeometry x="-430" y="-410" width="160" height="60" as="geometry" />
        </mxCell>
        <mxCell id="YbIEZe0q2mpBXpgS7-zM-104" value="" style="edgeStyle=orthogonalEdgeStyle;rounded=0;orthogonalLoop=1;jettySize=auto;html=1;" edge="1" parent="1" source="YbIEZe0q2mpBXpgS7-zM-100" target="YbIEZe0q2mpBXpgS7-zM-103">
          <mxGeometry relative="1" as="geometry" />
        </mxCell>
        <mxCell id="YbIEZe0q2mpBXpgS7-zM-100" value="Ввод размера массива Length" style="shape=parallelogram;perimeter=parallelogramPerimeter;whiteSpace=wrap;html=1;fixedSize=1;" vertex="1" parent="1">
          <mxGeometry x="-790" y="-800" width="240" height="70" as="geometry" />
        </mxCell>
        <mxCell id="YbIEZe0q2mpBXpgS7-zM-105" style="edgeStyle=orthogonalEdgeStyle;rounded=0;orthogonalLoop=1;jettySize=auto;html=1;entryX=0;entryY=0.5;entryDx=0;entryDy=0;exitX=0;exitY=0.5;exitDx=0;exitDy=0;" edge="1" parent="1" source="YbIEZe0q2mpBXpgS7-zM-103" target="YbIEZe0q2mpBXpgS7-zM-100">
          <mxGeometry relative="1" as="geometry">
            <Array as="points">
              <mxPoint x="-820" y="-650" />
              <mxPoint x="-820" y="-765" />
            </Array>
          </mxGeometry>
        </mxCell>
        <mxCell id="YbIEZe0q2mpBXpgS7-zM-106" value="Да" style="edgeLabel;html=1;align=center;verticalAlign=middle;resizable=0;points=[];" vertex="1" connectable="0" parent="YbIEZe0q2mpBXpgS7-zM-105">
          <mxGeometry x="-0.6126" y="-1" relative="1" as="geometry">
            <mxPoint as="offset" />
          </mxGeometry>
        </mxCell>
        <mxCell id="YbIEZe0q2mpBXpgS7-zM-108" value="" style="edgeStyle=orthogonalEdgeStyle;rounded=0;orthogonalLoop=1;jettySize=auto;html=1;" edge="1" parent="1" source="YbIEZe0q2mpBXpgS7-zM-103" target="YbIEZe0q2mpBXpgS7-zM-107">
          <mxGeometry relative="1" as="geometry" />
        </mxCell>
        <mxCell id="YbIEZe0q2mpBXpgS7-zM-109" value="Нет" style="edgeLabel;html=1;align=center;verticalAlign=middle;resizable=0;points=[];" vertex="1" connectable="0" parent="YbIEZe0q2mpBXpgS7-zM-108">
          <mxGeometry relative="1" as="geometry">
            <mxPoint as="offset" />
          </mxGeometry>
        </mxCell>
        <mxCell id="YbIEZe0q2mpBXpgS7-zM-103" value="Length &amp;lt; 2" style="rhombus;whiteSpace=wrap;html=1;" vertex="1" parent="1">
          <mxGeometry x="-722.5" y="-700" width="105" height="100" as="geometry" />
        </mxCell>
        <mxCell id="YbIEZe0q2mpBXpgS7-zM-119" style="edgeStyle=orthogonalEdgeStyle;rounded=0;orthogonalLoop=1;jettySize=auto;html=1;entryX=1;entryY=0.5;entryDx=0;entryDy=0;" edge="1" parent="1" source="YbIEZe0q2mpBXpgS7-zM-107" target="YbIEZe0q2mpBXpgS7-zM-110">
          <mxGeometry relative="1" as="geometry" />
        </mxCell>
        <mxCell id="YbIEZe0q2mpBXpgS7-zM-107" value="string[] Array = new string[Length]&lt;div&gt;i = 0&lt;/div&gt;" style="whiteSpace=wrap;html=1;" vertex="1" parent="1">
          <mxGeometry x="-565" y="-670" width="190" height="40" as="geometry" />
        </mxCell>
        <mxCell id="YbIEZe0q2mpBXpgS7-zM-123" value="" style="edgeStyle=orthogonalEdgeStyle;rounded=0;orthogonalLoop=1;jettySize=auto;html=1;entryX=1;entryY=0.5;entryDx=0;entryDy=0;" edge="1" parent="1" source="YbIEZe0q2mpBXpgS7-zM-110" target="YbIEZe0q2mpBXpgS7-zM-125">
          <mxGeometry relative="1" as="geometry">
            <mxPoint x="-629.9999999999998" y="-500" as="targetPoint" />
          </mxGeometry>
        </mxCell>
        <mxCell id="YbIEZe0q2mpBXpgS7-zM-124" value="Да" style="edgeLabel;html=1;align=center;verticalAlign=middle;resizable=0;points=[];" vertex="1" connectable="0" parent="YbIEZe0q2mpBXpgS7-zM-123">
          <mxGeometry relative="1" as="geometry">
            <mxPoint x="-5" as="offset" />
          </mxGeometry>
        </mxCell>
        <mxCell id="YbIEZe0q2mpBXpgS7-zM-141" style="edgeStyle=orthogonalEdgeStyle;rounded=0;orthogonalLoop=1;jettySize=auto;html=1;entryX=0.5;entryY=1;entryDx=0;entryDy=0;" edge="1" parent="1" source="YbIEZe0q2mpBXpgS7-zM-110" target="YbIEZe0q2mpBXpgS7-zM-140">
          <mxGeometry relative="1" as="geometry">
            <Array as="points">
              <mxPoint x="-555" y="-430" />
              <mxPoint x="-150" y="-430" />
            </Array>
          </mxGeometry>
        </mxCell>
        <mxCell id="YbIEZe0q2mpBXpgS7-zM-142" value="Нет" style="edgeLabel;html=1;align=center;verticalAlign=middle;resizable=0;points=[];" vertex="1" connectable="0" parent="YbIEZe0q2mpBXpgS7-zM-141">
          <mxGeometry x="-0.916" y="1" relative="1" as="geometry">
            <mxPoint x="-1" y="-9" as="offset" />
          </mxGeometry>
        </mxCell>
        <mxCell id="YbIEZe0q2mpBXpgS7-zM-110" value="i &amp;lt; Length" style="rhombus;whiteSpace=wrap;html=1;" vertex="1" parent="1">
          <mxGeometry x="-595" y="-540" width="80" height="80" as="geometry" />
        </mxCell>
        <mxCell id="YbIEZe0q2mpBXpgS7-zM-128" value="" style="edgeStyle=orthogonalEdgeStyle;rounded=0;orthogonalLoop=1;jettySize=auto;html=1;" edge="1" parent="1" source="YbIEZe0q2mpBXpgS7-zM-125" target="YbIEZe0q2mpBXpgS7-zM-127">
          <mxGeometry relative="1" as="geometry" />
        </mxCell>
        <mxCell id="YbIEZe0q2mpBXpgS7-zM-125" value="Ввод значения&lt;br&gt;ReadConsole" style="shape=parallelogram;perimeter=parallelogramPerimeter;whiteSpace=wrap;html=1;fixedSize=1;" vertex="1" parent="1">
          <mxGeometry x="-740" y="-530" width="120" height="60" as="geometry" />
        </mxCell>
        <mxCell id="YbIEZe0q2mpBXpgS7-zM-129" style="edgeStyle=orthogonalEdgeStyle;rounded=0;orthogonalLoop=1;jettySize=auto;html=1;entryX=0.5;entryY=0;entryDx=0;entryDy=0;exitX=0;exitY=0.5;exitDx=0;exitDy=0;" edge="1" parent="1" source="YbIEZe0q2mpBXpgS7-zM-127" target="YbIEZe0q2mpBXpgS7-zM-110">
          <mxGeometry relative="1" as="geometry">
            <mxPoint x="-709.9999999999998" y="-500" as="targetPoint" />
            <Array as="points">
              <mxPoint x="-770" y="-395" />
              <mxPoint x="-770" y="-560" />
              <mxPoint x="-555" y="-560" />
            </Array>
          </mxGeometry>
        </mxCell>
        <mxCell id="YbIEZe0q2mpBXpgS7-zM-130" value="Да" style="edgeLabel;html=1;align=center;verticalAlign=middle;resizable=0;points=[];" vertex="1" connectable="0" parent="YbIEZe0q2mpBXpgS7-zM-129">
          <mxGeometry x="-0.8723" relative="1" as="geometry">
            <mxPoint x="15" y="1" as="offset" />
          </mxGeometry>
        </mxCell>
        <mxCell id="YbIEZe0q2mpBXpgS7-zM-132" value="" style="edgeStyle=orthogonalEdgeStyle;rounded=0;orthogonalLoop=1;jettySize=auto;html=1;" edge="1" parent="1" source="YbIEZe0q2mpBXpgS7-zM-127" target="YbIEZe0q2mpBXpgS7-zM-131">
          <mxGeometry relative="1" as="geometry" />
        </mxCell>
        <mxCell id="YbIEZe0q2mpBXpgS7-zM-133" value="Нет" style="edgeLabel;html=1;align=center;verticalAlign=middle;resizable=0;points=[];" vertex="1" connectable="0" parent="YbIEZe0q2mpBXpgS7-zM-132">
          <mxGeometry relative="1" as="geometry">
            <mxPoint y="-4" as="offset" />
          </mxGeometry>
        </mxCell>
        <mxCell id="YbIEZe0q2mpBXpgS7-zM-127" value="ReadConsole = null" style="rhombus;whiteSpace=wrap;html=1;" vertex="1" parent="1">
          <mxGeometry x="-742.5" y="-430" width="125" height="70" as="geometry" />
        </mxCell>
        <mxCell id="YbIEZe0q2mpBXpgS7-zM-134" style="edgeStyle=orthogonalEdgeStyle;rounded=0;orthogonalLoop=1;jettySize=auto;html=1;entryX=0.5;entryY=0;entryDx=0;entryDy=0;" edge="1" parent="1" source="YbIEZe0q2mpBXpgS7-zM-131" target="YbIEZe0q2mpBXpgS7-zM-110">
          <mxGeometry relative="1" as="geometry">
            <Array as="points">
              <mxPoint x="-770" y="-250" />
              <mxPoint x="-770" y="-560" />
              <mxPoint x="-555" y="-560" />
            </Array>
          </mxGeometry>
        </mxCell>
        <mxCell id="YbIEZe0q2mpBXpgS7-zM-131" value="Array[i] = ReadConsole&lt;div&gt;i+= 1&lt;/div&gt;" style="rounded=0;whiteSpace=wrap;html=1;" vertex="1" parent="1">
          <mxGeometry x="-745" y="-280" width="130" height="60" as="geometry" />
        </mxCell>
        <mxCell id="YbIEZe0q2mpBXpgS7-zM-139" value="" style="edgeStyle=orthogonalEdgeStyle;rounded=0;orthogonalLoop=1;jettySize=auto;html=1;" edge="1" parent="1" source="YbIEZe0q2mpBXpgS7-zM-137" target="YbIEZe0q2mpBXpgS7-zM-54">
          <mxGeometry relative="1" as="geometry" />
        </mxCell>
        <mxCell id="YbIEZe0q2mpBXpgS7-zM-137" value="&lt;div&gt;i = 0&lt;/div&gt;&lt;div&gt;SizeArray = 0&lt;/div&gt;" style="rounded=0;whiteSpace=wrap;html=1;" vertex="1" parent="1">
          <mxGeometry x="-45" y="-510" width="90" height="40" as="geometry" />
        </mxCell>
        <mxCell id="YbIEZe0q2mpBXpgS7-zM-143" value="" style="edgeStyle=orthogonalEdgeStyle;rounded=0;orthogonalLoop=1;jettySize=auto;html=1;" edge="1" parent="1" source="YbIEZe0q2mpBXpgS7-zM-140" target="YbIEZe0q2mpBXpgS7-zM-137">
          <mxGeometry relative="1" as="geometry" />
        </mxCell>
        <mxCell id="YbIEZe0q2mpBXpgS7-zM-140" value="ArrayCheck = Array" style="rounded=0;whiteSpace=wrap;html=1;" vertex="1" parent="1">
          <mxGeometry x="-210" y="-480" width="120" height="30" as="geometry" />
        </mxCell>
        <mxCell id="YbIEZe0q2mpBXpgS7-zM-144" value="Конец" style="rounded=1;whiteSpace=wrap;html=1;" vertex="1" parent="1">
          <mxGeometry x="-410" y="210" width="120" height="60" as="geometry" />
        </mxCell>
      </root>
    </mxGraphModel>
  </diagram>
</mxfile>
